<svg width="208" height="161" viewBox="0 0 208 161" fill="none" xmlns="http://www.w3.org/2000/svg">
<g clip-path="url(#clip0_64415_3)">
<path d="M70 4C70 1.79086 68.2091 0 66 0C63.7909 0 62 1.79086 62 4V16C62 18.2091 63.7909 20 66 20C68.2091 20 70 18.2091 70 16V4Z" fill="#FFD97A"/>
<path d="M112.669 24.9877C114.231 23.4256 114.231 20.893 112.669 19.3309C111.107 17.7688 108.574 17.7688 107.012 19.3309L98.5269 27.8161C96.9648 29.3782 96.9648 31.9109 98.5269 33.473C100.089 35.0351 102.622 35.0351 104.184 33.473L112.669 24.9877Z" fill="#FFD97A"/>
<path d="M128 70C130.209 70 132 68.2091 132 66C132 63.7909 130.209 62 128 62H116C113.791 62 112 63.7909 112 66C112 68.2091 113.791 70 116 70H128Z" fill="#FFD97A"/>
<path d="M107.012 112.669C108.574 114.231 111.107 114.231 112.669 112.669C114.231 111.107 114.231 108.574 112.669 107.012L104.184 98.5269C102.622 96.9648 100.089 96.9648 98.527 98.5269C96.9649 100.089 96.9649 102.622 98.527 104.184L107.012 112.669Z" fill="#FFD97A"/>
<path d="M62 128C62 130.209 63.7909 132 66 132C68.2091 132 70 130.209 70 128V116C70 113.791 68.2091 112 66 112C63.7909 112 62 113.791 62 116V128Z" fill="#FFD97A"/>
<path d="M19.331 107.012C17.7689 108.574 17.7689 111.107 19.331 112.669C20.8931 114.231 23.4258 114.231 24.9879 112.669L33.4731 104.184C35.0352 102.622 35.0352 100.089 33.4731 98.5269C31.911 96.9648 29.3784 96.9648 27.8163 98.5269L19.331 107.012Z" fill="#FFD97A"/>
<path d="M4 62C1.79086 62 0 63.7909 0 66C0 68.2091 1.79086 70 4 70H16C18.2091 70 20 68.2091 20 66C20 63.7909 18.2091 62 16 62H4Z" fill="#FFD97A"/>
<path d="M24.9877 19.331C23.4256 17.7689 20.893 17.7689 19.3309 19.331C17.7688 20.8931 17.7688 23.4258 19.3309 24.9879L27.8161 33.4731C29.3782 35.0352 31.9109 35.0352 33.473 33.4731C35.0351 31.911 35.0351 29.3784 33.473 27.8163L24.9877 19.331Z" fill="#FFD97A"/>
<path d="M66 100C84.7777 100 100 84.7777 100 66C100 47.2223 84.7777 32 66 32C47.2223 32 32 47.2223 32 66C32 84.7777 47.2223 100 66 100Z" fill="url(#paint0_radial_64415_3)"/>
<path d="M126 151C143.673 151 158 136.673 158 119C158 101.327 143.673 87 126 87C108.327 87 94 101.327 94 119C94 136.673 108.327 151 126 151Z" fill="url(#paint1_radial_64415_3)"/>
<path d="M163 151C177.359 151 189 139.359 189 125C189 110.641 177.359 99 163 99C148.641 99 137 110.641 137 125C137 139.359 148.641 151 163 151Z" fill="url(#paint2_radial_64415_3)"/>
<path d="M96 149C109.255 149 120 138.255 120 125C120 111.745 109.255 101 96 101C82.7452 101 72 111.745 72 125C72 138.255 82.7452 149 96 149Z" fill="url(#paint3_radial_64415_3)"/>
<path d="M140 161C152.15 161 162 151.15 162 139C162 126.85 152.15 117 140 117C127.85 117 118 126.85 118 139C118 151.15 127.85 161 140 161Z" fill="url(#paint4_radial_64415_3)"/>
<path d="M108 157C119.046 157 128 148.046 128 137C128 125.954 119.046 117 108 117C96.9543 117 88 125.954 88 137C88 148.046 96.9543 157 108 157Z" fill="url(#paint5_radial_64415_3)"/>
<path d="M178 151C187.941 151 196 142.941 196 133C196 123.059 187.941 115 178 115C168.059 115 160 123.059 160 133C160 142.941 168.059 151 178 151Z" fill="url(#paint6_radial_64415_3)"/>
<path d="M108 136C130.091 136 148 118.091 148 96C148 73.9086 130.091 56 108 56C85.9086 56 68 73.9086 68 96C68 118.091 85.9086 136 108 136Z" fill="url(#paint7_radial_64415_3)"/>
<path d="M153 141C170.673 141 185 126.673 185 109C185 91.3269 170.673 77 153 77C135.327 77 121 91.3269 121 109C121 126.673 135.327 141 153 141Z" fill="url(#paint8_radial_64415_3)"/>
<path d="M76 139C91.464 139 104 126.464 104 111C104 95.536 91.464 83 76 83C60.536 83 48 95.536 48 111C48 126.464 60.536 139 76 139Z" fill="url(#paint9_radial_64415_3)"/>
<path d="M186 139C198.15 139 208 129.15 208 117C208 104.85 198.15 95 186 95C173.85 95 164 104.85 164 117C164 129.15 173.85 139 186 139Z" fill="url(#paint10_radial_64415_3)"/>
<path d="M133 161C149.569 161 163 147.569 163 131C163 114.431 149.569 101 133 101C116.431 101 103 114.431 103 131C103 147.569 116.431 161 133 161Z" fill="url(#paint11_radial_64415_3)"/>
<path d="M94 155C108.359 155 120 143.359 120 129C120 114.641 108.359 103 94 103C79.6406 103 68 114.641 68 129C68 143.359 79.6406 155 94 155Z" fill="url(#paint12_radial_64415_3)"/>
<path d="M166 153C179.255 153 190 142.255 190 129C190 115.745 179.255 105 166 105C152.745 105 142 115.745 142 129C142 142.255 152.745 153 166 153Z" fill="url(#paint13_radial_64415_3)"/>
<path opacity="0.25" d="M94 94C102.837 94 110 89.5228 110 84C110 78.4772 102.837 74 94 74C85.1634 74 78 78.4772 78 84C78 89.5228 85.1634 94 94 94Z" fill="white"/>
</g>
<defs>
<radialGradient id="paint0_radial_64415_3" cx="0" cy="0" r="1" gradientUnits="userSpaceOnUse" gradientTransform="translate(59.2 59.2) scale(40.8)">
<stop stop-color="#FFD97A"/>
<stop offset="1" stop-color="#F4845F"/>
</radialGradient>
<radialGradient id="paint1_radial_64415_3" cx="0" cy="0" r="1" gradientUnits="userSpaceOnUse" gradientTransform="translate(119.6 109.4) scale(41.6)">
<stop stop-color="#B8CAD8"/>
<stop offset="1" stop-color="#8FAABB"/>
</radialGradient>
<radialGradient id="paint2_radial_64415_3" cx="0" cy="0" r="1" gradientUnits="userSpaceOnUse" gradientTransform="translate(157.8 117.2) scale(33.8)">
<stop stop-color="#B8CAD8"/>
<stop offset="1" stop-color="#8FAABB"/>
</radialGradient>
<radialGradient id="paint3_radial_64415_3" cx="0" cy="0" r="1" gradientUnits="userSpaceOnUse" gradientTransform="translate(91.2 117.8) scale(31.2)">
<stop stop-color="#B8CAD8"/>
<stop offset="1" stop-color="#8FAABB"/>
</radialGradient>
<radialGradient id="paint4_radial_64415_3" cx="0" cy="0" r="1" gradientUnits="userSpaceOnUse" gradientTransform="translate(135.6 132.4) scale(28.6)">
<stop stop-color="#B8CAD8"/>
<stop offset="1" stop-color="#8FAABB"/>
</radialGradient>
<radialGradient id="paint5_radial_64415_3" cx="0" cy="0" r="1" gradientUnits="userSpaceOnUse" gradientTransform="translate(104 131) scale(26)">
<stop stop-color="#B8CAD8"/>
<stop offset="1" stop-color="#8FAABB"/>
</radialGradient>
<radialGradient id="paint6_radial_64415_3" cx="0" cy="0" r="1" gradientUnits="userSpaceOnUse" gradientTransform="translate(174.4 127.6) scale(23.4)">
<stop stop-color="#B8CAD8"/>
<stop offset="1" stop-color="#8FAABB"/>
</radialGradient>
<radialGradient id="paint7_radial_64415_3" cx="0" cy="0" r="1" gradientUnits="userSpaceOnUse" gradientTransform="translate(100 84) scale(52)">
<stop stop-color="#D8E4F0"/>
<stop offset="1" stop-color="#A8BECE"/>
</radialGradient>
<radialGradient id="paint8_radial_64415_3" cx="0" cy="0" r="1" gradientUnits="userSpaceOnUse" gradientTransform="translate(146.6 99.4) scale(41.6)">
<stop stop-color="#D8E4F0"/>
<stop offset="1" stop-color="#A8BECE"/>
</radialGradient>
<radialGradient id="paint9_radial_64415_3" cx="0" cy="0" r="1" gradientUnits="userSpaceOnUse" gradientTransform="translate(70.4 102.6) scale(36.4)">
<stop stop-color="#D8E4F0"/>
<stop offset="1" stop-color="#A8BECE"/>
</radialGradient>
<radialGradient id="paint10_radial_64415_3" cx="0" cy="0" r="1" gradientUnits="userSpaceOnUse" gradientTransform="translate(181.6 110.4) scale(28.6)">
<stop stop-color="#D8E4F0"/>
<stop offset="1" stop-color="#A8BECE"/>
</radialGradient>
<radialGradient id="paint11_radial_64415_3" cx="0" cy="0" r="1" gradientUnits="userSpaceOnUse" gradientTransform="translate(127 122) scale(39)">
<stop stop-color="#D8E4F0"/>
<stop offset="1" stop-color="#A8BECE"/>
</radialGradient>
<radialGradient id="paint12_radial_64415_3" cx="0" cy="0" r="1" gradientUnits="userSpaceOnUse" gradientTransform="translate(88.8 121.2) scale(33.8)">
<stop stop-color="#D8E4F0"/>
<stop offset="1" stop-color="#A8BECE"/>
</radialGradient>
<radialGradient id="paint13_radial_64415_3" cx="0" cy="0" r="1" gradientUnits="userSpaceOnUse" gradientTransform="translate(161.2 121.8) scale(31.2)">
<stop stop-color="#D8E4F0"/>
<stop offset="1" stop-color="#A8BECE"/>
</radialGradient>
<clipPath id="clip0_64415_3">
<rect width="208" height="161" fill="white"/>
</clipPath>
</defs>
</svg>
