<svg width="219" height="243" viewBox="0 0 219 243" fill="none" xmlns="http://www.w3.org/2000/svg">
<g clip-path="url(#clip0_64415_95)">
<path d="M96.0481 121.577C115.242 121.577 130.802 104.64 130.802 83.7483C130.802 62.8564 115.242 45.9202 96.0481 45.9202C76.8542 45.9202 61.2944 62.8564 61.2944 83.7483C61.2944 104.64 76.8542 121.577 96.0481 121.577Z" fill="url(#paint0_radial_64415_95)"/>
<path d="M133.284 122.927C148.365 122.927 160.591 109.62 160.591 93.2053C160.591 76.7902 148.365 63.4832 133.284 63.4832C118.203 63.4832 105.978 76.7902 105.978 93.2053C105.978 109.62 118.203 122.927 133.284 122.927Z" fill="url(#paint1_radial_64415_95)"/>
<path d="M60.0533 120.226C73.7632 120.226 84.8773 108.128 84.8773 93.2054C84.8773 78.2826 73.7632 66.1853 60.0533 66.1853C46.3433 66.1853 35.2292 78.2826 35.2292 93.2054C35.2292 108.128 46.3433 120.226 60.0533 120.226Z" fill="url(#paint2_radial_64415_95)"/>
<path d="M112.184 136.437C125.894 136.437 137.008 124.34 137.008 109.417C137.008 94.4945 125.894 82.3972 112.184 82.3972C98.4737 82.3972 87.3596 94.4945 87.3596 109.417C87.3596 124.34 98.4737 136.437 112.184 136.437Z" fill="url(#paint3_radial_64415_95)"/>
<path d="M77.43 132.385C89.769 132.385 99.7716 121.497 99.7716 108.066C99.7716 94.6359 89.769 83.7483 77.43 83.7483C65.0911 83.7483 55.0884 94.6359 55.0884 108.066C55.0884 121.497 65.0911 132.385 77.43 132.385Z" fill="url(#paint4_radial_64415_95)"/>
<path d="M151.902 133.735C163.556 133.735 173.003 123.453 173.003 110.768C173.003 98.084 163.556 87.8013 151.902 87.8013C140.249 87.8013 130.802 98.084 130.802 110.768C130.802 123.453 140.249 133.735 151.902 133.735Z" fill="url(#paint5_radial_64415_95)"/>
<path d="M89.8421 118.874C120.004 118.874 144.455 92.2603 144.455 59.4301C144.455 26.6 120.004 -0.0141602 89.8421 -0.0141602C59.6803 -0.0141602 35.2292 26.6 35.2292 59.4301C35.2292 92.2603 59.6803 118.874 89.8421 118.874Z" fill="url(#paint6_radial_64415_95)"/>
<path d="M149.42 124.278C172.727 124.278 191.621 103.713 191.621 78.3441C191.621 52.9754 172.727 32.4099 149.42 32.4099C126.113 32.4099 107.219 52.9754 107.219 78.3441C107.219 103.713 126.113 124.278 149.42 124.278Z" fill="url(#paint7_radial_64415_95)"/>
<path d="M37.7116 121.576C58.2765 121.576 74.9477 103.431 74.9477 81.0463C74.9477 58.6621 58.2765 40.5161 37.7116 40.5161C17.1467 40.5161 0.475586 58.6621 0.475586 81.0463C0.475586 103.431 17.1467 121.576 37.7116 121.576Z" fill="url(#paint8_radial_64415_95)"/>
<path d="M191.621 120.225C206.702 120.225 218.927 106.918 218.927 90.5031C218.927 74.0881 206.702 60.781 191.621 60.781C176.54 60.781 164.314 74.0881 164.314 90.5031C164.314 106.918 176.54 120.225 191.621 120.225Z" fill="url(#paint9_radial_64415_95)"/>
<path d="M118.39 149.948C138.955 149.948 155.626 131.802 155.626 109.417C155.626 87.0332 138.955 68.8872 118.39 68.8872C97.825 68.8872 81.1538 87.0332 81.1538 109.417C81.1538 131.802 97.825 149.948 118.39 149.948Z" fill="url(#paint10_radial_64415_95)"/>
<path d="M65.0181 141.841C82.841 141.841 97.2893 126.115 97.2893 106.715C97.2893 87.3156 82.841 71.5891 65.0181 71.5891C47.1952 71.5891 32.7468 87.3156 32.7468 106.715C32.7468 126.115 47.1952 141.841 65.0181 141.841Z" fill="url(#paint11_radial_64415_95)"/>
<path d="M158.108 139.14C174.56 139.14 187.897 124.623 187.897 106.715C187.897 88.808 174.56 74.2913 158.108 74.2913C141.656 74.2913 128.319 88.808 128.319 106.715C128.319 124.623 141.656 139.14 158.108 139.14Z" fill="url(#paint12_radial_64415_95)"/>
<path opacity="0.25" d="M62.5357 54.026C73.5037 54.026 82.395 47.9773 82.395 40.5159C82.395 33.0545 73.5037 27.0059 62.5357 27.0059C51.5678 27.0059 42.6765 33.0545 42.6765 40.5159C42.6765 47.9773 51.5678 54.026 62.5357 54.026Z" fill="white"/>
<path d="M50.1238 163.458V193.18" stroke="#A8CEDE" stroke-width="3" stroke-linecap="round"/>
<path d="M38.3323 170.888L61.9151 185.749" stroke="#A8CEDE" stroke-width="3" stroke-linecap="round"/>
<path d="M38.3323 185.749L61.9151 170.888" stroke="#A8CEDE" stroke-width="3" stroke-linecap="round"/>
<path d="M50.1238 181.696C51.8375 181.696 53.2268 180.184 53.2268 178.319C53.2268 176.453 51.8375 174.941 50.1238 174.941C48.41 174.941 47.0208 176.453 47.0208 178.319C47.0208 180.184 48.41 181.696 50.1238 181.696Z" fill="#A8CEDE"/>
<path d="M89.8423 163.458V193.18" stroke="#A8CEDE" stroke-width="3" stroke-linecap="round"/>
<path d="M78.0508 170.888L101.634 185.749" stroke="#A8CEDE" stroke-width="3" stroke-linecap="round"/>
<path d="M78.0508 185.749L101.634 170.888" stroke="#A8CEDE" stroke-width="3" stroke-linecap="round"/>
<path d="M89.8423 181.696C91.556 181.696 92.9453 180.184 92.9453 178.319C92.9453 176.453 91.556 174.941 89.8423 174.941C88.1285 174.941 86.7393 176.453 86.7393 178.319C86.7393 180.184 88.1285 181.696 89.8423 181.696Z" fill="#A8CEDE"/>
<path d="M129.561 163.458V193.18" stroke="#A8CEDE" stroke-width="3" stroke-linecap="round"/>
<path d="M117.769 170.888L141.352 185.749" stroke="#A8CEDE" stroke-width="3" stroke-linecap="round"/>
<path d="M117.769 185.749L141.352 170.888" stroke="#A8CEDE" stroke-width="3" stroke-linecap="round"/>
<path d="M129.561 181.696C131.274 181.696 132.664 180.184 132.664 178.319C132.664 176.453 131.274 174.941 129.561 174.941C127.847 174.941 126.458 176.453 126.458 178.319C126.458 180.184 127.847 181.696 129.561 181.696Z" fill="#A8CEDE"/>
<path d="M169.279 163.458V193.18" stroke="#A8CEDE" stroke-width="3" stroke-linecap="round"/>
<path d="M157.488 170.888L181.07 185.749" stroke="#A8CEDE" stroke-width="3" stroke-linecap="round"/>
<path d="M157.488 185.749L181.07 170.888" stroke="#A8CEDE" stroke-width="3" stroke-linecap="round"/>
<path d="M169.279 181.696C170.993 181.696 172.382 180.184 172.382 178.319C172.382 176.453 170.993 174.941 169.279 174.941C167.565 174.941 166.176 176.453 166.176 178.319C166.176 180.184 167.565 181.696 169.279 181.696Z" fill="#A8CEDE"/>
<path d="M69.9829 213.445V243.167" stroke="#A8CEDE" stroke-width="3" stroke-linecap="round"/>
<path d="M58.1914 220.875L81.7742 235.736" stroke="#A8CEDE" stroke-width="3" stroke-linecap="round"/>
<path d="M58.1914 235.736L81.7742 220.875" stroke="#A8CEDE" stroke-width="3" stroke-linecap="round"/>
<path d="M69.9829 231.683C71.6966 231.683 73.0859 230.171 73.0859 228.306C73.0859 226.441 71.6966 224.928 69.9829 224.928C68.2691 224.928 66.8799 226.441 66.8799 228.306C66.8799 230.171 68.2691 231.683 69.9829 231.683Z" fill="#A8CEDE"/>
<path d="M109.701 213.445V243.167" stroke="#A8CEDE" stroke-width="3" stroke-linecap="round"/>
<path d="M97.9099 220.875L121.493 235.736" stroke="#A8CEDE" stroke-width="3" stroke-linecap="round"/>
<path d="M97.9099 235.736L121.493 220.875" stroke="#A8CEDE" stroke-width="3" stroke-linecap="round"/>
<path d="M109.701 231.683C111.415 231.683 112.804 230.171 112.804 228.306C112.804 226.441 111.415 224.928 109.701 224.928C107.988 224.928 106.598 226.441 106.598 228.306C106.598 230.171 107.988 231.683 109.701 231.683Z" fill="#A8CEDE"/>
<path d="M149.42 213.445V243.167" stroke="#A8CEDE" stroke-width="3" stroke-linecap="round"/>
<path d="M137.628 220.875L161.211 235.736" stroke="#A8CEDE" stroke-width="3" stroke-linecap="round"/>
<path d="M137.628 235.736L161.211 220.875" stroke="#A8CEDE" stroke-width="3" stroke-linecap="round"/>
<path d="M149.42 231.683C151.134 231.683 152.523 230.171 152.523 228.306C152.523 226.441 151.134 224.928 149.42 224.928C147.706 224.928 146.317 226.441 146.317 228.306C146.317 230.171 147.706 231.683 149.42 231.683Z" fill="#A8CEDE"/>
</g>
<defs>
<radialGradient id="paint0_radial_64415_95" cx="0" cy="0" r="1" gradientUnits="userSpaceOnUse" gradientTransform="translate(89.0974 72.3999) scale(45.1797 49.1766)">
<stop stop-color="#C2D3E0"/>
<stop offset="1" stop-color="#8FAABB"/>
</radialGradient>
<radialGradient id="paint1_radial_64415_95" cx="0" cy="0" r="1" gradientUnits="userSpaceOnUse" gradientTransform="translate(127.823 84.2887) scale(35.4984 38.6388)">
<stop stop-color="#C2D3E0"/>
<stop offset="1" stop-color="#8FAABB"/>
</radialGradient>
<radialGradient id="paint2_radial_64415_95" cx="0" cy="0" r="1" gradientUnits="userSpaceOnUse" gradientTransform="translate(55.0885 85.0994) scale(32.2712 35.1262)">
<stop stop-color="#C2D3E0"/>
<stop offset="1" stop-color="#8FAABB"/>
</radialGradient>
<radialGradient id="paint3_radial_64415_95" cx="0" cy="0" r="1" gradientUnits="userSpaceOnUse" gradientTransform="translate(107.219 101.311) scale(32.2712 35.1262)">
<stop stop-color="#C2D3E0"/>
<stop offset="1" stop-color="#8FAABB"/>
</radialGradient>
<radialGradient id="paint4_radial_64415_95" cx="0" cy="0" r="1" gradientUnits="userSpaceOnUse" gradientTransform="translate(72.9617 100.771) scale(29.0441 31.6135)">
<stop stop-color="#C2D3E0"/>
<stop offset="1" stop-color="#8FAABB"/>
</radialGradient>
<radialGradient id="paint5_radial_64415_95" cx="0" cy="0" r="1" gradientUnits="userSpaceOnUse" gradientTransform="translate(147.682 103.878) scale(27.4306 29.8572)">
<stop stop-color="#C2D3E0"/>
<stop offset="1" stop-color="#8FAABB"/>
</radialGradient>
<radialGradient id="paint6_radial_64415_95" cx="0" cy="0" r="1" gradientUnits="userSpaceOnUse" gradientTransform="translate(78.9195 41.5968) scale(70.9967 77.2776)">
<stop stop-color="#D8E4F0"/>
<stop offset="1" stop-color="#A8BECE"/>
</radialGradient>
<radialGradient id="paint7_radial_64415_95" cx="0" cy="0" r="1" gradientUnits="userSpaceOnUse" gradientTransform="translate(140.98 64.5639) scale(54.8611 59.7145)">
<stop stop-color="#D8E4F0"/>
<stop offset="1" stop-color="#A8BECE"/>
</radialGradient>
<radialGradient id="paint8_radial_64415_95" cx="0" cy="0" r="1" gradientUnits="userSpaceOnUse" gradientTransform="translate(30.2644 68.8872) scale(48.4069 52.6892)">
<stop stop-color="#D8E4F0"/>
<stop offset="1" stop-color="#A8BECE"/>
</radialGradient>
<radialGradient id="paint9_radial_64415_95" cx="0" cy="0" r="1" gradientUnits="userSpaceOnUse" gradientTransform="translate(186.159 81.5865) scale(35.4984 38.6388)">
<stop stop-color="#D8E4F0"/>
<stop offset="1" stop-color="#A8BECE"/>
</radialGradient>
<radialGradient id="paint10_radial_64415_95" cx="0" cy="0" r="1" gradientUnits="userSpaceOnUse" gradientTransform="translate(110.943 97.2583) scale(48.4069 52.6892)">
<stop stop-color="#D8E4F0"/>
<stop offset="1" stop-color="#A8BECE"/>
</radialGradient>
<radialGradient id="paint11_radial_64415_95" cx="0" cy="0" r="1" gradientUnits="userSpaceOnUse" gradientTransform="translate(58.5638 96.1774) scale(41.9526 45.664)">
<stop stop-color="#D8E4F0"/>
<stop offset="1" stop-color="#A8BECE"/>
</radialGradient>
<radialGradient id="paint12_radial_64415_95" cx="0" cy="0" r="1" gradientUnits="userSpaceOnUse" gradientTransform="translate(152.15 96.9882) scale(38.7255 42.1514)">
<stop stop-color="#D8E4F0"/>
<stop offset="1" stop-color="#A8BECE"/>
</radialGradient>
<clipPath id="clip0_64415_95">
<rect width="219" height="243" fill="white"/>
</clipPath>
</defs>
</svg>
