<svg width="166" height="167" viewBox="0 0 166 167" fill="none" xmlns="http://www.w3.org/2000/svg">
<g clip-path="url(#clip0_64415_69)">
<path d="M84 92C100.569 92 114 78.5685 114 62C114 45.4315 100.569 32 84 32C67.4315 32 54 45.4315 54 62C54 78.5685 67.4315 92 84 92Z" fill="url(#paint0_radial_64415_69)"/>
<path d="M117 92C130.255 92 141 81.2548 141 68C141 54.7452 130.255 44 117 44C103.745 44 93 54.7452 93 68C93 81.2548 103.745 92 117 92Z" fill="url(#paint1_radial_64415_69)"/>
<path d="M55 90C67.1503 90 77 80.1503 77 68C77 55.8497 67.1503 46 55 46C42.8497 46 33 55.8497 33 68C33 80.1503 42.8497 90 55 90Z" fill="url(#paint2_radial_64415_69)"/>
<path d="M99 102C111.15 102 121 92.1503 121 80C121 67.8497 111.15 58 99 58C86.8497 58 77 67.8497 77 80C77 92.1503 86.8497 102 99 102Z" fill="url(#paint3_radial_64415_69)"/>
<path d="M69 99C80.0457 99 89 90.0457 89 79C89 67.9543 80.0457 59 69 59C57.9543 59 49 67.9543 49 79C49 90.0457 57.9543 99 69 99Z" fill="url(#paint4_radial_64415_69)"/>
<path d="M129 92C138.389 92 146 84.3888 146 75C146 65.6112 138.389 58 129 58C119.611 58 112 65.6112 112 75C112 84.3888 119.611 92 129 92Z" fill="url(#paint5_radial_64415_69)"/>
<path d="M64 84C87.196 84 106 65.196 106 42C106 18.804 87.196 0 64 0C40.804 0 22 18.804 22 42C22 65.196 40.804 84 64 84Z" fill="url(#paint6_radial_64415_69)"/>
<path d="M111 88C129.225 88 144 73.2254 144 55C144 36.7746 129.225 22 111 22C92.7746 22 78 36.7746 78 55C78 73.2254 92.7746 88 111 88Z" fill="url(#paint7_radial_64415_69)"/>
<path d="M29 86C45.0163 86 58 73.0163 58 57C58 40.9837 45.0163 28 29 28C12.9837 28 0 40.9837 0 57C0 73.0163 12.9837 86 29 86Z" fill="url(#paint8_radial_64415_69)"/>
<path d="M144 85C156.15 85 166 75.1503 166 63C166 50.8497 156.15 41 144 41C131.85 41 122 50.8497 122 63C122 75.1503 131.85 85 144 85Z" fill="url(#paint9_radial_64415_69)"/>
<path d="M87 107C103.569 107 117 93.5685 117 77C117 60.4315 103.569 47 87 47C70.4315 47 57 60.4315 57 77C57 93.5685 70.4315 107 87 107Z" fill="url(#paint10_radial_64415_69)"/>
<path d="M47 101C61.3594 101 73 89.3594 73 75C73 60.6406 61.3594 49 47 49C32.6406 49 21 60.6406 21 75C21 89.3594 32.6406 101 47 101Z" fill="url(#paint11_radial_64415_69)"/>
<path d="M119 99C132.255 99 143 88.2548 143 75C143 61.7452 132.255 51 119 51C105.745 51 95 61.7452 95 75C95 88.2548 105.745 99 119 99Z" fill="url(#paint12_radial_64415_69)"/>
<path opacity="0.25" d="M47 39C55.8366 39 63 34.5228 63 29C63 23.4772 55.8366 19 47 19C38.1634 19 31 23.4772 31 29C31 34.5228 38.1634 39 47 39Z" fill="white"/>
<path d="M36 118.5C36 116.567 34.433 115 32.5 115C30.567 115 29 116.567 29 118.5V133.5C29 135.433 30.567 137 32.5 137C34.433 137 36 135.433 36 133.5V118.5Z" fill="url(#paint13_linear_64415_69)"/>
<path d="M64 118.5C64 116.567 62.433 115 60.5 115C58.567 115 57 116.567 57 118.5V133.5C57 135.433 58.567 137 60.5 137C62.433 137 64 135.433 64 133.5V118.5Z" fill="url(#paint14_linear_64415_69)"/>
<path d="M92 118.5C92 116.567 90.433 115 88.5 115C86.567 115 85 116.567 85 118.5V133.5C85 135.433 86.567 137 88.5 137C90.433 137 92 135.433 92 133.5V118.5Z" fill="url(#paint15_linear_64415_69)"/>
<path d="M120 118.5C120 116.567 118.433 115 116.5 115C114.567 115 113 116.567 113 118.5V133.5C113 135.433 114.567 137 116.5 137C118.433 137 120 135.433 120 133.5V118.5Z" fill="url(#paint16_linear_64415_69)"/>
<path d="M50 148.5C50 146.567 48.433 145 46.5 145C44.567 145 43 146.567 43 148.5V163.5C43 165.433 44.567 167 46.5 167C48.433 167 50 165.433 50 163.5V148.5Z" fill="url(#paint17_linear_64415_69)"/>
<path d="M78 148.5C78 146.567 76.433 145 74.5 145C72.567 145 71 146.567 71 148.5V163.5C71 165.433 72.567 167 74.5 167C76.433 167 78 165.433 78 163.5V148.5Z" fill="url(#paint18_linear_64415_69)"/>
<path d="M106 148.5C106 146.567 104.433 145 102.5 145C100.567 145 99 146.567 99 148.5V163.5C99 165.433 100.567 167 102.5 167C104.433 167 106 165.433 106 163.5V148.5Z" fill="url(#paint19_linear_64415_69)"/>
</g>
<defs>
<radialGradient id="paint0_radial_64415_69" cx="0" cy="0" r="1" gradientUnits="userSpaceOnUse" gradientTransform="translate(78 53) scale(39)">
<stop stop-color="#A8BECE"/>
<stop offset="1" stop-color="#7A9AAD"/>
</radialGradient>
<radialGradient id="paint1_radial_64415_69" cx="0" cy="0" r="1" gradientUnits="userSpaceOnUse" gradientTransform="translate(112.2 60.8) scale(31.2)">
<stop stop-color="#A8BECE"/>
<stop offset="1" stop-color="#7A9AAD"/>
</radialGradient>
<radialGradient id="paint2_radial_64415_69" cx="0" cy="0" r="1" gradientUnits="userSpaceOnUse" gradientTransform="translate(50.6 61.4) scale(28.6)">
<stop stop-color="#A8BECE"/>
<stop offset="1" stop-color="#7A9AAD"/>
</radialGradient>
<radialGradient id="paint3_radial_64415_69" cx="0" cy="0" r="1" gradientUnits="userSpaceOnUse" gradientTransform="translate(94.6 73.4) scale(28.6)">
<stop stop-color="#A8BECE"/>
<stop offset="1" stop-color="#7A9AAD"/>
</radialGradient>
<radialGradient id="paint4_radial_64415_69" cx="0" cy="0" r="1" gradientUnits="userSpaceOnUse" gradientTransform="translate(65 73) scale(26)">
<stop stop-color="#A8BECE"/>
<stop offset="1" stop-color="#7A9AAD"/>
</radialGradient>
<radialGradient id="paint5_radial_64415_69" cx="0" cy="0" r="1" gradientUnits="userSpaceOnUse" gradientTransform="translate(125.6 69.9) scale(22.1)">
<stop stop-color="#A8BECE"/>
<stop offset="1" stop-color="#7A9AAD"/>
</radialGradient>
<radialGradient id="paint6_radial_64415_69" cx="0" cy="0" r="1" gradientUnits="userSpaceOnUse" gradientTransform="translate(55.6 29.4) scale(54.6)">
<stop stop-color="#C2D3E0"/>
<stop offset="1" stop-color="#8FAABB"/>
</radialGradient>
<radialGradient id="paint7_radial_64415_69" cx="0" cy="0" r="1" gradientUnits="userSpaceOnUse" gradientTransform="translate(104.4 45.1) scale(42.9)">
<stop stop-color="#C2D3E0"/>
<stop offset="1" stop-color="#8FAABB"/>
</radialGradient>
<radialGradient id="paint8_radial_64415_69" cx="0" cy="0" r="1" gradientUnits="userSpaceOnUse" gradientTransform="translate(23.2 48.3) scale(37.7)">
<stop stop-color="#C2D3E0"/>
<stop offset="1" stop-color="#8FAABB"/>
</radialGradient>
<radialGradient id="paint9_radial_64415_69" cx="0" cy="0" r="1" gradientUnits="userSpaceOnUse" gradientTransform="translate(139.6 56.4) scale(28.6)">
<stop stop-color="#C2D3E0"/>
<stop offset="1" stop-color="#8FAABB"/>
</radialGradient>
<radialGradient id="paint10_radial_64415_69" cx="0" cy="0" r="1" gradientUnits="userSpaceOnUse" gradientTransform="translate(81 68) scale(39)">
<stop stop-color="#C2D3E0"/>
<stop offset="1" stop-color="#8FAABB"/>
</radialGradient>
<radialGradient id="paint11_radial_64415_69" cx="0" cy="0" r="1" gradientUnits="userSpaceOnUse" gradientTransform="translate(41.8 67.2) scale(33.8)">
<stop stop-color="#C2D3E0"/>
<stop offset="1" stop-color="#8FAABB"/>
</radialGradient>
<radialGradient id="paint12_radial_64415_69" cx="0" cy="0" r="1" gradientUnits="userSpaceOnUse" gradientTransform="translate(114.2 67.8) scale(31.2)">
<stop stop-color="#C2D3E0"/>
<stop offset="1" stop-color="#8FAABB"/>
</radialGradient>
<linearGradient id="paint13_linear_64415_69" x1="29" y1="115" x2="29" y2="137" gradientUnits="userSpaceOnUse">
<stop stop-color="#7BB8D4"/>
<stop offset="1" stop-color="#5A9EC0"/>
</linearGradient>
<linearGradient id="paint14_linear_64415_69" x1="57" y1="115" x2="57" y2="137" gradientUnits="userSpaceOnUse">
<stop stop-color="#7BB8D4"/>
<stop offset="1" stop-color="#5A9EC0"/>
</linearGradient>
<linearGradient id="paint15_linear_64415_69" x1="85" y1="115" x2="85" y2="137" gradientUnits="userSpaceOnUse">
<stop stop-color="#7BB8D4"/>
<stop offset="1" stop-color="#5A9EC0"/>
</linearGradient>
<linearGradient id="paint16_linear_64415_69" x1="113" y1="115" x2="113" y2="137" gradientUnits="userSpaceOnUse">
<stop stop-color="#7BB8D4"/>
<stop offset="1" stop-color="#5A9EC0"/>
</linearGradient>
<linearGradient id="paint17_linear_64415_69" x1="43" y1="145" x2="43" y2="167" gradientUnits="userSpaceOnUse">
<stop stop-color="#7BB8D4"/>
<stop offset="1" stop-color="#5A9EC0"/>
</linearGradient>
<linearGradient id="paint18_linear_64415_69" x1="71" y1="145" x2="71" y2="167" gradientUnits="userSpaceOnUse">
<stop stop-color="#7BB8D4"/>
<stop offset="1" stop-color="#5A9EC0"/>
</linearGradient>
<linearGradient id="paint19_linear_64415_69" x1="99" y1="145" x2="99" y2="167" gradientUnits="userSpaceOnUse">
<stop stop-color="#7BB8D4"/>
<stop offset="1" stop-color="#5A9EC0"/>
</linearGradient>
<clipPath id="clip0_64415_69">
<rect width="166" height="167" fill="white"/>
</clipPath>
</defs>
</svg>
