<svg width="210" height="210" viewBox="0 0 210 210" fill="none" xmlns="http://www.w3.org/2000/svg">
<g clip-path="url(#clip0_64415_165)">
<path d="M110 5C110 2.23858 107.761 0 105 0C102.239 0 100 2.23858 100 5V27C100 29.7614 102.239 32 105 32C107.761 32 110 29.7614 110 27V5Z" fill="url(#paint0_linear_64415_165)"/>
<path d="M179.246 37.8249C181.199 35.8722 181.199 32.7064 179.246 30.7538C177.294 28.8012 174.128 28.8012 172.175 30.7538L156.619 46.3101C154.666 48.2628 154.666 51.4286 156.619 53.3812C158.571 55.3338 161.737 55.3338 163.69 53.3812L179.246 37.8249Z" fill="url(#paint1_linear_64415_165)"/>
<path d="M205 110C207.761 110 210 107.761 210 105C210 102.239 207.761 100 205 100H183C180.239 100 178 102.239 178 105C178 107.761 180.239 110 183 110H205Z" fill="url(#paint2_linear_64415_165)"/>
<path d="M172.175 179.246C174.128 181.199 177.294 181.199 179.246 179.246C181.199 177.294 181.199 174.128 179.246 172.175L163.69 156.619C161.737 154.666 158.571 154.666 156.619 156.619C154.666 158.571 154.666 161.737 156.619 163.69L172.175 179.246Z" fill="url(#paint3_linear_64415_165)"/>
<path d="M100 205C100 207.761 102.239 210 105 210C107.761 210 110 207.761 110 205V183C110 180.239 107.761 178 105 178C102.239 178 100 180.239 100 183V205Z" fill="url(#paint4_linear_64415_165)"/>
<path d="M30.7538 172.175C28.8012 174.128 28.8012 177.294 30.7538 179.246C32.7064 181.199 35.8722 181.199 37.8248 179.246L53.3812 163.69C55.3338 161.737 55.3338 158.571 53.3812 156.619C51.4286 154.666 48.2627 154.666 46.3101 156.619L30.7538 172.175Z" fill="url(#paint5_linear_64415_165)"/>
<path d="M5 100C2.23858 100 0 102.239 0 105C0 107.761 2.23858 110 5 110H27C29.7614 110 32 107.761 32 105C32 102.239 29.7614 100 27 100H5Z" fill="url(#paint6_linear_64415_165)"/>
<path d="M37.8249 30.7538C35.8722 28.8012 32.7064 28.8012 30.7538 30.7538C28.8012 32.7064 28.8012 35.8722 30.7538 37.8248L46.3101 53.3812C48.2628 55.3338 51.4286 55.3338 53.3812 53.3812C55.3338 51.4286 55.3338 48.2627 53.3812 46.3101L37.8249 30.7538Z" fill="url(#paint7_linear_64415_165)"/>
<path d="M105 159C134.823 159 159 134.823 159 105C159 75.1766 134.823 51 105 51C75.1766 51 51 75.1766 51 105C51 134.823 75.1766 159 105 159Z" fill="url(#paint8_radial_64415_165)"/>
<path opacity="0.18" d="M88 104C96.8366 104 104 96.8366 104 88C104 79.1634 96.8366 72 88 72C79.1634 72 72 79.1634 72 88C72 96.8366 79.1634 104 88 104Z" fill="white"/>
</g>
<defs>
<linearGradient id="paint0_linear_64415_165" x1="100" y1="0" x2="100" y2="32" gradientUnits="userSpaceOnUse">
<stop stop-color="#FFD97A"/>
<stop offset="1" stop-color="#F4845F"/>
</linearGradient>
<linearGradient id="paint1_linear_64415_165" x1="175.711" y1="27.2183" x2="153.083" y2="49.8457" gradientUnits="userSpaceOnUse">
<stop stop-color="#FFD97A"/>
<stop offset="1" stop-color="#F4845F"/>
</linearGradient>
<linearGradient id="paint2_linear_64415_165" x1="210" y1="100" x2="178" y2="100" gradientUnits="userSpaceOnUse">
<stop stop-color="#FFD97A"/>
<stop offset="1" stop-color="#F4845F"/>
</linearGradient>
<linearGradient id="paint3_linear_64415_165" x1="182.782" y1="175.711" x2="160.154" y2="153.083" gradientUnits="userSpaceOnUse">
<stop stop-color="#FFD97A"/>
<stop offset="1" stop-color="#F4845F"/>
</linearGradient>
<linearGradient id="paint4_linear_64415_165" x1="110" y1="210" x2="110" y2="178" gradientUnits="userSpaceOnUse">
<stop stop-color="#FFD97A"/>
<stop offset="1" stop-color="#F4845F"/>
</linearGradient>
<linearGradient id="paint5_linear_64415_165" x1="34.2893" y1="182.782" x2="56.9167" y2="160.154" gradientUnits="userSpaceOnUse">
<stop stop-color="#FFD97A"/>
<stop offset="1" stop-color="#F4845F"/>
</linearGradient>
<linearGradient id="paint6_linear_64415_165" x1="0" y1="110" x2="32" y2="110" gradientUnits="userSpaceOnUse">
<stop stop-color="#FFD97A"/>
<stop offset="1" stop-color="#F4845F"/>
</linearGradient>
<linearGradient id="paint7_linear_64415_165" x1="27.2183" y1="34.2893" x2="49.8457" y2="56.9167" gradientUnits="userSpaceOnUse">
<stop stop-color="#FFD97A"/>
<stop offset="1" stop-color="#F4845F"/>
</linearGradient>
<radialGradient id="paint8_radial_64415_165" cx="0" cy="0" r="1" gradientUnits="userSpaceOnUse" gradientTransform="translate(94.2 94.2) scale(64.8)">
<stop stop-color="#FFD97A"/>
<stop offset="1" stop-color="#F4845F"/>
</radialGradient>
<clipPath id="clip0_64415_165">
<rect width="210" height="210" fill="white"/>
</clipPath>
</defs>
</svg>
